<?xml version="1.0" encoding="UTF-8"?>
<svg xmlns="http://www.w3.org/2000/svg" width="512" height="512">
  <path d="M0 0 C0.97055328 0.00215515 1.94110657 0.0043103 2.94107056 0.00653076 C17.26930898 0.0575666 31.29685782 0.40491562 45.375 3.3125 C46.35807129 3.51117676 47.34114258 3.70985352 48.35400391 3.91455078 C106.24050887 15.95357308 161.924648 48.35241277 197.12890625 96.61767578 C198.42441202 98.37970577 199.75524064 100.11030385 201.09375 101.83984375 C208.4630522 111.46745962 214.57916453 121.67460308 220.375 132.3125 C220.7369043 132.9729834 221.09880859 133.6334668 221.47167969 134.31396484 C254.28043078 194.92381555 259.52911062 267.68692405 240.26855469 333.40332031 C228.36882062 372.1457332 207.6329615 407.31090793 179.375 436.3125 C178.78041992 436.92754395 178.18583984 437.54258789 177.57324219 438.17626953 C169.90737086 446.08132869 162.18073077 453.66581234 153.375 460.3125 C152.74287598 460.79396484 152.11075195 461.27542969 151.45947266 461.77148438 C140.28204336 470.23852376 128.75552278 477.72594729 116.375 484.3125 C115.09061035 484.99675049 115.09061035 484.99675049 113.78027344 485.69482422 C78.52332923 504.16367086 40.34309997 512.77961016 0.6875 512.625 C-0.2836676 512.62317719 -1.25483521 512.62135437 -2.25543213 512.61947632 C-16.2575203 512.57521428 -29.87364275 512.1612177 -43.625 509.3125 C-44.47400879 509.15152832 -45.32301758 508.99055664 -46.19775391 508.82470703 C-85.33552544 501.3613584 -122.76934766 484.61491706 -153.625 459.3125 C-154.41704834 458.67272217 -154.41704834 458.67272217 -155.22509766 458.02001953 C-170.4211063 445.69562623 -184.83016819 431.84071789 -196.37890625 416.00732422 C-197.67441202 414.24529423 -199.00524064 412.51469615 -200.34375 410.78515625 C-231.21566429 370.47306982 -249.41270951 318.01786754 -250.625 267.3125 C-250.64546387 266.53229492 -250.66592773 265.75208984 -250.68701172 264.94824219 C-251.62641712 223.90942436 -244.18832122 183.54107286 -226.625 146.3125 C-226.29000488 145.59562012 -225.95500977 144.87874023 -225.60986328 144.14013672 C-217.90325732 127.78709479 -208.66305148 112.62140488 -197.625 98.3125 C-196.93664062 97.41015625 -196.24828125 96.5078125 -195.5390625 95.578125 C-183.211087 79.77818905 -168.63284953 64.39544676 -152.625 52.3125 C-151.99287598 51.83103516 -151.36075195 51.34957031 -150.70947266 50.85351562 C-139.53204336 42.38647624 -128.00552278 34.89905271 -115.625 28.3125 C-114.76874023 27.85633301 -113.91248047 27.40016602 -113.03027344 26.93017578 C-77.79937958 8.47497524 -39.62914341 -0.15856915 0 0 Z " fill="#EB6A56" transform="translate(255.625,-0.3125)"></path>
  <path d="M0 0 C4.57329391 0.01083121 9.14655843 0.01041838 13.71986294 0.0100069 C53.10472032 0.01074556 53.10472032 0.01074556 71.72833252 0.60186768 C73.37735565 0.65097038 73.37735565 0.65097038 75.05969238 0.70106506 C99.57500894 1.64427252 120.93106694 10.21139682 138.11114502 28.19171143 C155.26297627 48.26744694 159.83344264 72.1413381 159.82281494 97.9541626 C159.82581308 99.41896652 159.8292171 100.88376965 159.83299255 102.34857178 C159.84177114 106.30134432 159.84416809 110.25409517 159.84480834 114.20687652 C159.84552245 116.68451836 159.84766359 119.16215481 159.85030556 121.6397953 C159.85953936 130.30659964 159.863643 138.97338866 159.862854 147.64019775 C159.86225406 155.68127109 159.8727946 163.72227716 159.88859767 171.7633335 C159.9017338 178.69789796 159.90703535 185.63244059 159.90639859 192.56701738 C159.90614535 196.69494741 159.90889972 200.82281761 159.91957664 204.95073509 C159.9293603 208.83896661 159.92926764 212.72708235 159.92206001 216.6153183 C159.92102672 218.0296909 159.9233008 219.44407112 159.92942047 220.85843086 C160.03153927 246.12813354 155.23840784 271.05663441 137.67755127 290.19561768 C137.01368408 290.9510083 136.34981689 291.70639893 135.66583252 292.48468018 C119.25291773 310.14145727 97.2353645 316.14286867 73.92755127 317.32061768 C72.7220311 317.38365585 72.7220311 317.38365585 71.49215698 317.44796753 C24.21646827 319.82079102 -23.69649208 318.93087719 -70.95916748 316.73077393 C-71.77909683 316.69472549 -72.59902618 316.65867706 -73.44380188 316.62153625 C-96.68862571 315.47680249 -115.56127248 306.2174283 -131.52557373 289.40655518 C-153.98170534 264.52808643 -154.81131291 229.14940374 -154.75835681 197.59627509 C-154.75521183 194.68963187 -154.7614151 191.78303491 -154.76739556 188.87639838 C-154.78132338 182.00139975 -154.77997933 175.12652568 -154.76849365 168.25152588 C-154.75702919 161.23559289 -154.77108701 154.22004297 -154.79789013 147.20416039 C-154.82027536 141.10911803 -154.82663382 135.01419387 -154.82081372 128.91911346 C-154.81749608 125.31022142 -154.81950136 121.70157428 -154.83706474 118.09271812 C-154.93934736 94.83440409 -154.59248893 69.27261246 -143.57244873 48.13311768 C-143.22319336 47.45120361 -142.87393799 46.76928955 -142.51409912 46.06671143 C-133.14900212 28.15492979 -120.82590792 17.6547619 -103.32244873 8.19561768 C-102.51549561 7.75733643 -101.70854248 7.31905518 -100.87713623 6.86749268 C-90.69951722 1.83501686 -78.38439179 1.76613245 -67.24432373 1.08233643 C-66.2205727 1.0193464 -66.2205727 1.0193464 -65.17613983 0.95508385 C-43.47773737 -0.33305253 -21.72668693 -0.06476086 0 0 Z " fill="#F95F58" transform="translate(253.32244873046875,96.80438232421875)"></path>
  <path d="M0 0 C63.69084661 0.07636792 123.10558598 30.69502025 167.625 74.6875 C174.51609506 81.59973967 180.87814835 88.67084996 186.62890625 96.55517578 C187.92441202 98.31720577 189.25524064 100.04780385 190.59375 101.77734375 C197.9630522 111.40495962 204.07916453 121.61210308 209.875 132.25 C210.2369043 132.9104834 210.59880859 133.5709668 210.97167969 134.25146484 C243.78043078 194.86131555 249.02911062 267.62442405 229.76855469 333.34082031 C217.86882062 372.0832332 197.1329615 407.24840793 168.875 436.25 C167.98312988 437.17256592 167.98312988 437.17256592 167.07324219 438.11376953 C159.40737086 446.01882869 151.68073077 453.60331234 142.875 460.25 C142.24287598 460.73146484 141.61075195 461.21292969 140.95947266 461.70898438 C129.78204336 470.17602376 118.25552278 477.66344729 105.875 484.25 C104.59061035 484.93425049 104.59061035 484.93425049 103.28027344 485.63232422 C79.95273941 497.85211973 54.84343169 505.98007244 28.875 510.25 C28.10978027 510.37842285 27.34456055 510.5068457 26.55615234 510.63916016 C14.23310837 512.62227437 2.49612872 512.25 -10.125 512.25 C-10.125 480.24 -10.125 448.23 -10.125 415.25 C13.635 414.755 13.635 414.755 37.875 414.25 C85.69713496 412.70336299 85.69713496 412.70336299 124.53125 387.03125 C141.69575695 366.66270175 146.03098458 342.5306685 146.02026367 316.49145508 C146.02326181 315.02665116 146.02666583 313.56184802 146.03044128 312.0970459 C146.03921987 308.14427336 146.04161682 304.19152251 146.04225707 300.23874116 C146.04297118 297.76109931 146.04511232 295.28346287 146.04775429 292.80582237 C146.05698809 284.13901804 146.06109173 275.47222901 146.06030273 266.80541992 C146.05970279 258.76434659 146.07024333 250.72334051 146.0860464 242.68228418 C146.09918253 235.74771972 146.10448408 228.81317708 146.10384732 221.8786003 C146.10359408 217.75067027 146.10634846 213.62280007 146.11702538 209.49488258 C146.12680903 205.60665106 146.12671637 201.71853532 146.11950874 197.83029938 C146.11847545 196.41592677 146.12074953 195.00154656 146.1268692 193.58718681 C146.22795385 168.5733904 141.06998455 144.31473044 123.875 125.25 C123.28332031 124.56550781 122.69164062 123.88101563 122.08203125 123.17578125 C106.62413539 106.39951474 83.98388556 99.66686354 61.82666016 98.67260742 C56.84442322 98.51074394 51.86209616 98.40841756 46.87792969 98.33105469 C40.73326786 98.23566332 34.58938161 98.10382077 28.4453125 97.9765625 C15.58889234 97.71376065 2.73208657 97.47745375 -10.125 97.25 C-10.14812143 84.750429 -10.16591406 72.25086305 -10.17681217 59.75127506 C-10.18204144 53.94786387 -10.18913987 48.14446725 -10.20043945 42.34106445 C-10.21126678 36.74549147 -10.2172765 31.14993255 -10.21987724 25.5543499 C-10.22173177 23.41441056 -10.22535291 21.27447204 -10.23073006 19.13453865 C-10.23793844 16.14835034 -10.23899103 13.16222093 -10.23852539 10.17602539 C-10.24212067 9.28194977 -10.24571594 8.38787415 -10.24942017 7.46670532 C-10.2347725 -1.15497384 -7.83561022 0.02372736 0 0 Z " fill="#A4227A" transform="translate(266.125,-0.25)"></path>
  <path d="M0 0 C4.57329391 0.01083121 9.14655843 0.01041838 13.71986294 0.0100069 C53.10472032 0.01074556 53.10472032 0.01074556 71.72833252 0.60186768 C73.37735565 0.65097038 73.37735565 0.65097038 75.05969238 0.70106506 C99.57500894 1.64427252 120.93106694 10.21139682 138.11114502 28.19171143 C155.26297627 48.26744694 159.83344264 72.1413381 159.82281494 97.9541626 C159.82581308 99.41896652 159.8292171 100.88376965 159.83299255 102.34857178 C159.84177114 106.30134432 159.84416809 110.25409517 159.84480834 114.20687652 C159.84552245 116.68451836 159.84766359 119.16215481 159.85030556 121.6397953 C159.85953936 130.30659964 159.863643 138.97338866 159.862854 147.64019775 C159.86225406 155.68127109 159.8727946 163.72227716 159.88859767 171.7633335 C159.9017338 178.69789796 159.90703535 185.63244059 159.90639859 192.56701738 C159.90614535 196.69494741 159.90889972 200.82281761 159.91957664 204.95073509 C159.9293603 208.83896661 159.92926764 212.72708235 159.92206001 216.6153183 C159.92102672 218.0296909 159.9233008 219.44407112 159.92942047 220.85843086 C160.03153927 246.12813354 155.23840784 271.05663441 137.67755127 290.19561768 C137.01368408 290.9510083 136.34981689 291.70639893 135.66583252 292.48468018 C119.25291773 310.14145727 97.2353645 316.14286867 73.92755127 317.32061768 C72.7220311 317.38365585 72.7220311 317.38365585 71.49215698 317.44796753 C24.21646827 319.82079102 -23.69649208 318.93087719 -70.95916748 316.73077393 C-71.77909683 316.69472549 -72.59902618 316.65867706 -73.44380188 316.62153625 C-96.68862571 315.47680249 -115.56127248 306.2174283 -131.52557373 289.40655518 C-153.98170534 264.52808643 -154.81131291 229.14940374 -154.75835681 197.59627509 C-154.75521183 194.68963187 -154.7614151 191.78303491 -154.76739556 188.87639838 C-154.78132338 182.00139975 -154.77997933 175.12652568 -154.76849365 168.25152588 C-154.75702919 161.23559289 -154.77108701 154.22004297 -154.79789013 147.20416039 C-154.82027536 141.10911803 -154.82663382 135.01419387 -154.82081372 128.91911346 C-154.81749608 125.31022142 -154.81950136 121.70157428 -154.83706474 118.09271812 C-154.93934736 94.83440409 -154.59248893 69.27261246 -143.57244873 48.13311768 C-143.22319336 47.45120361 -142.87393799 46.76928955 -142.51409912 46.06671143 C-133.14900212 28.15492979 -120.82590792 17.6547619 -103.32244873 8.19561768 C-102.51549561 7.75733643 -101.70854248 7.31905518 -100.87713623 6.86749268 C-90.69951722 1.83501686 -78.38439179 1.76613245 -67.24432373 1.08233643 C-66.2205727 1.0193464 -66.2205727 1.0193464 -65.17613983 0.95508385 C-43.47773737 -0.33305253 -21.72668693 -0.06476086 0 0 Z M-104.32244873 42.19561768 C-105.18869873 42.77311768 -106.05494873 43.35061768 -106.94744873 43.94561768 C-119.38928869 55.73262395 -124.23380994 71.61059524 -124.88787842 88.22515869 C-124.92871929 89.22232942 -124.96956017 90.21950014 -125.01163864 91.24688816 C-125.4855362 103.97834067 -125.50550654 116.71475686 -125.52263737 129.4534843 C-125.52561661 131.56586559 -125.52972841 133.67824205 -125.53414154 135.7906208 C-125.5477083 142.44555275 -125.55743461 149.10047299 -125.56134343 155.75541776 C-125.5658385 163.35742277 -125.58349904 170.95924929 -125.61234403 178.56120008 C-125.63408211 184.50157105 -125.64405365 190.4418921 -125.64538455 196.38230234 C-125.64642124 199.90369659 -125.6520852 203.42492058 -125.67020416 206.9462719 C-125.78883817 231.39998865 -125.18869574 254.43223571 -107.63494873 273.38311768 C-93.68649314 286.72165981 -74.09913613 289.53310647 -55.61346436 289.4385376 C-53.81779022 289.44138512 -53.81779022 289.44138512 -51.98583984 289.44429016 C-48.74143738 289.44733203 -45.49720779 289.44155471 -42.25282478 289.43133712 C-38.82205537 289.42243752 -35.39128886 289.42431647 -31.96051025 289.42469788 C-26.19441433 289.42376525 -20.42837145 289.41514247 -14.66229248 289.40142822 C-8.05444831 289.38576701 -1.44666231 289.38042839 5.16119909 289.38116378 C12.26767304 289.38184711 19.37412541 289.3748569 26.48059273 289.36571717 C28.49368841 289.36361526 30.5067855 289.36303617 32.5198822 289.36247826 C44.8599572 289.35531681 57.18982245 289.32287661 69.51934814 288.76715088 C70.75761478 288.71319672 70.75761478 288.71319672 72.02089691 288.65815258 C89.51808206 287.74843358 105.22601187 282.41200294 117.49005127 269.44561768 C139.18320719 242.91441979 131.84244073 197.60423675 131.80792236 165.69512939 C131.80223299 160.3922302 131.80561751 155.08938124 131.81134892 149.78648376 C131.82878222 130.94371315 131.83279836 112.10192373 131.27520752 93.26593018 C131.24222565 92.04962921 131.20924377 90.83332825 131.17526245 89.58016968 C130.53276701 71.1991772 125.2962595 56.0879948 111.67755127 43.19561768 C98.45664416 32.27399876 82.71593616 29.97931227 66.12286377 29.58233643 C65.44410313 29.56401953 64.76534248 29.54570263 64.06601334 29.52683067 C41.48720401 28.92421699 18.89085795 29.00853613 -3.69403076 29.01031494 C-10.19907008 29.01041764 -16.7040029 28.99661305 -23.2090168 28.97954273 C-28.28452033 28.9683872 -33.35999802 28.9663966 -38.43551254 28.96692467 C-40.83461763 28.96575581 -43.23372364 28.96139666 -45.63281631 28.9535923 C-66.89944872 28.89070897 -86.53346755 28.87264654 -104.32244873 42.19561768 Z " fill="#D6D5D6" transform="translate(253.32244873046875,96.80438232421875)"></path>
  <path d="M0 0 C1.24605766 0.00295326 1.24605766 0.00295326 2.51728821 0.00596619 C3.38138809 0.00451096 4.24548798 0.00305573 5.13577271 0.0015564 C7.98173742 -0.00070825 10.82758519 0.00562783 13.67353821 0.01377869 C14.64060699 0.01566193 15.60767578 0.01754517 16.60404968 0.01948547 C28.88085566 0.04756141 41.15963075 0.10736083 53.43330383 0.40324402 C55.41816247 0.44969037 57.40328019 0.48462411 59.38838196 0.51914978 C77.05491936 1.03287409 92.9908405 5.11735594 105.98994446 17.68955994 C118.0436945 31.209598 121.3492493 46.66265547 121.79072571 64.25596619 C121.80916409 64.90332607 121.82760246 65.55068596 121.84659958 66.21766281 C122.39097297 85.43889905 122.32466109 104.67290951 122.3039093 123.90000916 C122.29934394 128.14611714 122.29935374 132.39218241 122.3039093 136.63829041 C122.34682106 176.66303979 122.34682106 176.66303979 121.85322571 194.75596619 C121.83124115 195.83822479 121.80925659 196.9204834 121.78660583 198.03553772 C121.21077168 214.78292215 116.99412076 230.84878672 105.17353821 243.13877869 C92.97868668 254.40911078 77.83837515 259.33850855 61.40229797 259.25230408 C60.28885765 259.25252312 60.28885765 259.25252312 59.15292358 259.25274658 C56.72356645 259.25205542 54.29428804 259.24430071 51.86494446 259.23643494 C50.17101076 259.23456792 48.47707652 259.23314536 46.78314209 259.23214722 C42.34280383 259.22834437 37.90249871 259.21853331 33.46217346 259.20744324 C28.12482132 259.195374 22.78745804 259.19081624 17.45009613 259.18498993 C9.35788716 259.17532022 1.2657508 259.15614809 -6.82646179 259.13877869 C-6.82646179 243.62877869 -6.82646179 228.11877869 -6.82646179 212.13877869 C-1.54646179 211.47877869 3.73353821 210.81877869 9.17353821 210.13877869 C30.87211602 205.04432998 49.04130945 192.67704129 61.0448761 173.745224 C69.04576409 160.38102432 72.57109865 145.99024454 72.54853821 130.51377869 C72.54692688 129.36457947 72.54531555 128.21538025 72.5436554 127.03135681 C72.41555073 118.12431507 71.28465919 110.53557581 68.17353821 102.13877869 C67.72301086 100.78526306 67.72301086 100.78526306 67.26338196 99.40440369 C63.31360102 88.39289319 56.30060013 79.40382129 48.17353821 71.13877869 C47.4864679 70.43881775 46.79939758 69.73885681 46.09150696 69.01768494 C33.3196468 56.86190709 16.33852352 49.95967637 -1.11161804 48.58799744 C-2.72048889 48.459776 -2.72048889 48.459776 -4.36186218 48.32896423 C-5.58183899 48.23482239 -5.58183899 48.23482239 -6.82646179 48.13877869 C-6.85173124 41.46357528 -6.86929447 34.78838412 -6.88139343 28.11314392 C-6.88643504 25.84035277 -6.89326817 23.56756489 -6.90190125 21.29478455 C-6.9139744 18.03574317 -6.91969166 14.77674452 -6.92411804 11.51768494 C-6.92927933 10.49477859 -6.93444061 9.47187225 -6.9397583 8.41796875 C-6.93983383 7.47706894 -6.93990936 6.53616913 -6.93998718 5.5667572 C-6.94220779 4.73402786 -6.94442841 3.90129852 -6.94671631 3.04333496 C-6.68163545 -1.15493902 -3.46593568 0.01420702 0 0 Z " fill="#BF2369" transform="translate(262.8264617919922,125.86122131347656)"></path>
  <path d="M0 0 C1.42187705 1.19894413 2.81616127 2.43106397 4.1875 3.6875 C5.09113281 4.51121094 5.99476563 5.33492187 6.92578125 6.18359375 C13.15694089 12.12806946 18.00495571 18.16770252 22.1875 25.6875 C22.64769531 26.49832031 23.10789062 27.30914062 23.58203125 28.14453125 C33.08072631 45.90795192 35.54288847 68.54164141 30.5 88.0625 C29.77545511 90.28645028 29.007595 92.49698309 28.1875 94.6875 C27.836875 95.71359375 27.48625 96.7396875 27.125 97.796875 C19.70154424 117.69586057 3.95792041 133.02355845 -14.875 142.17578125 C-17.82182634 143.47652881 -20.77504743 144.61688921 -23.8125 145.6875 C-24.68519531 146.0071875 -25.55789063 146.326875 -26.45703125 146.65625 C-45.59949245 152.57151698 -66.70703226 148.90949079 -84.15014648 139.89038086 C-106.35587769 127.8545824 -118.97396911 110.04175247 -126.234375 86.234375 C-131.12559185 64.68658185 -127.31182783 42.3669627 -116.46875 23.30859375 C-113.60781035 18.7810218 -110.34651123 14.70490648 -106.8125 10.6875 C-106.14605469 9.92566406 -105.47960937 9.16382813 -104.79296875 8.37890625 C-95.75737381 -1.29370651 -84.26855747 -8.0085777 -71.8125 -12.3125 C-70.96429688 -12.63089844 -70.11609375 -12.94929687 -69.2421875 -13.27734375 C-46.00233866 -20.62872451 -19.22711567 -14.25754032 0 0 Z " fill="#D6D5D7" transform="translate(303.8125,189.3125)"></path>
  <path d="M0 0 C3.66149287 0.01042014 7.32299339 0.01489241 10.98449707 0.01983643 C18.1075822 0.02987177 25.23054814 0.04946485 32.3536377 0.06866455 C32.3536377 9.30866455 32.3536377 18.54866455 32.3536377 28.06866455 C29.29070435 28.09839355 29.29070435 28.09839355 26.16589355 28.12872314 C19.3605661 28.19613139 12.55538146 28.27375775 5.7502203 28.35619164 C1.63099866 28.40578461 -2.48820181 28.45211228 -6.60754395 28.49053955 C-10.59530558 28.52786684 -14.58287197 28.574343 -18.57046318 28.62672806 C-20.0791723 28.64502379 -21.58792286 28.66021937 -23.09669685 28.67200851 C-42.99249678 28.83278582 -61.75573228 30.676945 -77.3338623 44.44366455 C-88.58716112 57.21767942 -93.54344727 70.12099892 -94.21179199 87.09820557 C-94.25263287 88.09537629 -94.29347374 89.09254702 -94.33555222 90.11993504 C-94.80944978 102.85138755 -94.82942012 115.58780374 -94.84655094 128.32653117 C-94.84953019 130.43891247 -94.85364199 132.55128892 -94.85805511 134.66366768 C-94.87162187 141.31859963 -94.88134818 147.97351987 -94.88525701 154.62846464 C-94.88975208 162.23046964 -94.90741261 169.83229616 -94.9362576 177.43424696 C-94.95799568 183.37461792 -94.96796722 189.31493898 -94.96929812 195.25534922 C-94.97033481 198.77674347 -94.97599878 202.29796745 -94.99411774 205.81931877 C-95.11092665 229.89683302 -94.64794665 252.96714157 -77.4588623 271.75616455 C-62.49008579 285.96827764 -41.32503895 287.33384172 -21.84558105 287.48272705 C-20.27231385 287.50148743 -18.69905619 287.52106424 -17.12580872 287.54141235 C-13.03087047 287.59222623 -8.93589978 287.63211964 -4.84082031 287.66955566 C-0.64376133 287.7099179 3.55316868 287.76086133 7.75012207 287.81085205 C15.95121129 287.90700854 24.1523561 287.99062056 32.3536377 288.06866455 C32.3536377 297.30866455 32.3536377 306.54866455 32.3536377 316.06866455 C24.49195488 316.08979811 16.63037858 316.10981365 8.76869202 316.12041473 C5.10542551 316.12563413 1.4421832 316.13257356 -2.22106934 316.144104 C-72.96900342 316.36054523 -72.96900342 316.36054523 -98.8338623 291.38116455 C-123.84770314 266.2514634 -125.13807148 229.71759919 -125.08227038 196.46932197 C-125.0791254 193.56267874 -125.08532867 190.65608178 -125.09130913 187.74944526 C-125.10523695 180.87444663 -125.1038929 173.99957255 -125.09240723 167.12457275 C-125.08094276 160.10863977 -125.09500058 153.09308984 -125.1218037 146.07720727 C-125.14418894 139.98216491 -125.15054739 133.88724075 -125.14472729 127.79216033 C-125.14140966 124.1832683 -125.14341494 120.57462115 -125.16097832 116.965765 C-125.26326093 93.70745096 -124.9164025 68.14565933 -113.8963623 47.00616455 C-113.54710693 46.32425049 -113.19785156 45.64233643 -112.8380127 44.9397583 C-103.47291569 27.02797666 -91.14982149 16.52780878 -73.6463623 7.06866455 C-72.83940918 6.6303833 -72.03245605 6.19210205 -71.2010498 5.74053955 C-50.94435434 -4.27568625 -22.02343173 -0.06953977 0 0 Z " fill="#FEFEFD" transform="translate(223.6463623046875,97.93133544921875)"></path>
  <path d="M0 0 C11.30834002 8.63232062 19.1496166 20.75546308 21.55859375 34.953125 C23.17308491 51.38062196 19.84698325 66.68584666 9.30078125 79.75 C0.29313894 89.30794844 -11.54662261 96.69104338 -24.89453125 97.421875 C-26.82655171 97.45588305 -28.75912705 97.46564205 -30.69140625 97.453125 C-32.20939819 97.44563232 -32.20939819 97.44563232 -33.75805664 97.43798828 C-45.56884744 97.16351682 -54.43080576 93.67649685 -63.44140625 85.953125 C-64.45203125 85.210625 -65.46265625 84.468125 -66.50390625 83.703125 C-75.62011349 75.95310685 -81.55034048 63.25880059 -82.68041992 51.45703125 C-83.61263558 32.81961063 -80.00442517 19.88708814 -67.82910156 5.4362793 C-50.20652459 -13.39854743 -20.59246283 -14.22643296 0 0 Z " fill="#FE4564" transform="translate(286.44140625,212.046875)"></path>
  <path d="M0 0 C0 9.24 0 18.48 0 28 C-3.96 28.66 -7.92 29.32 -12 30 C-25.02451716 33.43126687 -36.38284242 41.10719832 -43.640625 52.55078125 C-45.70439317 56.26912218 -47.50971124 60.01647933 -49 64 C-49.35707031 64.85980469 -49.71414062 65.71960938 -50.08203125 66.60546875 C-54.00878297 81.12609533 -51.42548214 97.5570377 -44.0625 110.4375 C-36.45579929 122.17951431 -25.61748118 130.96673209 -11.671875 134.04296875 C-7.79405441 134.82852148 -3.91956096 135.39179226 0 136 C0 145.24 0 154.48 0 164 C-22.36177967 164 -41.32982925 155.04830013 -57.625 139.875 C-73.99762802 122.82751455 -80.43871827 100.67892376 -80.1484375 77.5390625 C-79.65010042 57.94052729 -71.86499935 40.624722 -59 26 C-58.33355469 25.23816406 -57.66710937 24.47632813 -56.98046875 23.69140625 C-41.94342464 7.59423659 -21.70972173 0 0 0 Z " fill="#FEFDFD" transform="translate(256,174)"></path>
  <path d="M0 0 C15.17309787 0 26.42691624 4.85109677 37.6875 14.9375 C48.6700467 26.43361903 52.59166391 41.3061525 52.2421875 56.75 C51.59466696 71.18778473 45.27124327 83.93635698 34.7421875 93.77734375 C23.69313989 102.73305328 14.25270632 106 0 106 C0 71.02 0 36.04 0 0 Z " fill="#D1275C" transform="translate(256,203)"></path>
  <path d="M0 0 C5.7287763 2.0799313 9.09825646 5.66079189 12 11 C13.90948276 16.72844829 13.91185715 22.77562505 11.375 28.3125 C8.72431376 32.94885933 5.33314096 35.67578486 0.6875 38.3125 C-5.80000345 39.97209391 -11.33898565 39.572024 -17.2109375 36.2734375 C-21.24444285 33.40242714 -24.08644773 29.56049241 -26 25 C-26.79782056 18.81430033 -26.26130938 13.40154366 -23 8 C-15.66686243 0.51690052 -10.53797995 -1.0846108 0 0 Z " fill="#D6D4D6" transform="translate(347,151)"></path>
</svg>
